{
	"asset":{
		"generator":"Khronos glTF Blender I/O v4.3.47",
		"version":"2.0"
	},
	"extensionsUsed":[
		"KHR_materials_transmission",
		"KHR_materials_emissive_strength",
		"KHR_materials_specular"
	],
	"scene":0,
	"scenes":[
		{
			"name":"Scene",
			"nodes":[
				0,
				1,
				2,
				3,
				4,
				5,
				6
			]
		}
	],
	"nodes":[
		{
			"mesh":0,
			"name":"SHAKER 1.003",
			"rotation":[
				0,
				0.7071068286895752,
				0,
				0.7071068286895752
			],
			"scale":[
				0.0010000000474974513,
				0.0010000000474974513,
				0.0010000000474974513
			],
			"translation":[
				0,
				0,
				-0.05422627553343773
			]
		},
		{
			"mesh":1,
			"name":"SHAKER 2.003",
			"rotation":[
				0,
				0.7071068286895752,
				0,
				0.7071068286895752
			],
			"scale":[
				0.0010000000474974513,
				0.0010000000474974513,
				0.0010000000474974513
			],
			"translation":[
				0,
				0,
				-0.05422627553343773
			]
		},
		{
			"mesh":2,
			"name":"SHAKER 3.003",
			"rotation":[
				0,
				0.7071068286895752,
				0,
				0.7071068286895752
			],
			"scale":[
				0.0010000000474974513,
				0.0010000000474974513,
				0.0010000000474974513
			],
			"translation":[
				0,
				0,
				-0.05422627553343773
			]
		},
		{
			"mesh":3,
			"name":"SHAKER 4.001",
			"rotation":[
				0,
				0.7071068286895752,
				0,
				0.7071068286895752
			],
			"scale":[
				0.0010000000474974513,
				0.0010000000474974513,
				0.0010000000474974513
			],
			"translation":[
				0,
				0,
				-0.05422627553343773
			]
		},
		{
			"mesh":4,
			"name":"SHAKER 5.003",
			"rotation":[
				0,
				0.7071068286895752,
				0,
				0.7071068286895752
			],
			"scale":[
				0.0010000000474974513,
				0.0010000000474974513,
				0.0010000000474974513
			],
			"translation":[
				0,
				0,
				-0.05422627553343773
			]
		},
		{
			"mesh":5,
			"name":"SHAKER 6.003",
			"rotation":[
				0,
				0.7071068286895752,
				0,
				0.7071068286895752
			],
			"scale":[
				0.0010000000474974513,
				0.0010000000474974513,
				0.0010000000474974513
			],
			"translation":[
				0,
				0,
				-0.05422627553343773
			]
		},
		{
			"mesh":6,
			"name":"Plane.002",
			"rotation":[
				0.20346267521381378,
				0,
				0,
				0.9790827035903931
			],
			"scale":[
				0.26190733909606934,
				0.26190733909606934,
				0.26190733909606934
			],
			"translation":[
				0,
				0.5219110250473022,
				0.22670641541481018
			]
		}
	],
	"materials":[
		{
			"doubleSided":true,
			"name":"Plastic_Shiny_White.002",
			"pbrMetallicRoughness":{
				"baseColorFactor":[
					0.7864193916320801,
					0.7864193916320801,
					0.7864193916320801,
					1
				],
				"metallicFactor":0,
				"roughnessFactor":0.4000000059604645
			}
		},
		{
			"doubleSided":true,
			"name":"Metal_Normal_Silver.006",
			"pbrMetallicRoughness":{
				"baseColorFactor":[
					0.878812849521637,
					0.878812849521637,
					0.878812849521637,
					1
				],
				"roughnessFactor":0.30000001192092896
			}
		},
		{
			"doubleSided":true,
			"name":"Glass_Translucent_Grey.001"
		},
		{
			"doubleSided":true,
			"name":"Metal_Normal_Silver.007",
			"pbrMetallicRoughness":{
				"baseColorFactor":[
					0.13785052299499512,
					0.13785052299499512,
					0.13785052299499512,
					1
				],
				"roughnessFactor":0.30000001192092896
			}
		},
		{
			"doubleSided":true,
			"extensions":{
				"KHR_materials_transmission":{
					"transmissionFactor":0.09019999951124191
				},
				"KHR_materials_specular":{
					"specularColorFactor":[
						1.694200038909912,
						1.694200038909912,
						1.694200038909912
					]
				}
			},
			"name":"Plastic (1)",
			"pbrMetallicRoughness":{
				"baseColorFactor":[
					0.593652606010437,
					0.593652606010437,
					0.593652606010437,
					1
				],
				"metallicFactor":0,
				"roughnessFactor":0.5344358682632446
			}
		},
		{
			"doubleSided":true,
			"emissiveFactor":[
				1,
				1,
				1
			],
			"extensions":{
				"KHR_materials_emissive_strength":{
					"emissiveStrength":2
				}
			},
			"name":"Material.002",
			"pbrMetallicRoughness":{
				"baseColorFactor":[
					0,
					0,
					0,
					1
				]
			}
		}
	],
	"meshes":[
		{
			"name":"SHAKER 1.004",
			"primitives":[
				{
					"attributes":{
						"POSITION":0,
						"NORMAL":1,
						"TEXCOORD_0":2
					},
					"indices":3,
					"material":0
				}
			]
		},
		{
			"name":"SHAKER 2.004",
			"primitives":[
				{
					"attributes":{
						"POSITION":4,
						"NORMAL":5,
						"TEXCOORD_0":6
					},
					"indices":7,
					"material":1
				}
			]
		},
		{
			"name":"SHAKER 3.004",
			"primitives":[
				{
					"attributes":{
						"POSITION":8,
						"NORMAL":9,
						"TEXCOORD_0":10
					},
					"indices":11,
					"material":2
				}
			]
		},
		{
			"name":"SHAKER 4.001",
			"primitives":[
				{
					"attributes":{
						"POSITION":12,
						"NORMAL":13,
						"TEXCOORD_0":14
					},
					"indices":15,
					"material":3
				}
			]
		},
		{
			"name":"SHAKER 5.004",
			"primitives":[
				{
					"attributes":{
						"POSITION":16,
						"NORMAL":17,
						"TEXCOORD_0":18
					},
					"indices":19,
					"material":0
				}
			]
		},
		{
			"name":"SHAKER 6.004",
			"primitives":[
				{
					"attributes":{
						"POSITION":20,
						"NORMAL":21,
						"TEXCOORD_0":22
					},
					"indices":23,
					"material":4
				}
			]
		},
		{
			"name":"Plane.002",
			"primitives":[
				{
					"attributes":{
						"POSITION":24,
						"NORMAL":25,
						"TEXCOORD_0":26
					},
					"indices":27,
					"material":5
				}
			]
		}
	],
	"accessors":[
		{
			"bufferView":0,
			"componentType":5126,
			"count":7722,
			"max":[
				18.70001220703125,
				89.28671264648438,
				18.700014114379883
			],
			"min":[
				-18.70001220703125,
				78.40833282470703,
				-18.700359344482422
			],
			"type":"VEC3"
		},
		{
			"bufferView":1,
			"componentType":5126,
			"count":7722,
			"type":"VEC3"
		},
		{
			"bufferView":2,
			"componentType":5126,
			"count":7722,
			"type":"VEC2"
		},
		{
			"bufferView":3,
			"componentType":5123,
			"count":35556,
			"type":"SCALAR"
		},
		{
			"bufferView":4,
			"componentType":5126,
			"count":4552,
			"max":[
				18.70001220703125,
				87.20833587646484,
				18.700000762939453
			],
			"min":[
				-18.70001220703125,
				39.20155715942383,
				-18.700000762939453
			],
			"type":"VEC3"
		},
		{
			"bufferView":5,
			"componentType":5126,
			"count":4552,
			"type":"VEC3"
		},
		{
			"bufferView":6,
			"componentType":5126,
			"count":4552,
			"type":"VEC2"
		},
		{
			"bufferView":7,
			"componentType":5123,
			"count":22578,
			"type":"SCALAR"
		},
		{
			"bufferView":8,
			"componentType":5126,
			"count":9653,
			"max":[
				20,
				91.20833587646484,
				20
			],
			"min":[
				-20,
				43.20155715942383,
				-20
			],
			"type":"VEC3"
		},
		{
			"bufferView":9,
			"componentType":5126,
			"count":9653,
			"type":"VEC3"
		},
		{
			"bufferView":10,
			"componentType":5126,
			"count":9653,
			"type":"VEC2"
		},
		{
			"bufferView":11,
			"componentType":5123,
			"count":47646,
			"type":"SCALAR"
		},
		{
			"bufferView":12,
			"componentType":5126,
			"count":13780,
			"max":[
				20.0003662109375,
				42.70833206176758,
				20
			],
			"min":[
				-20,
				5.316647529602051,
				-20
			],
			"type":"VEC3"
		},
		{
			"bufferView":13,
			"componentType":5126,
			"count":13780,
			"type":"VEC3"
		},
		{
			"bufferView":14,
			"componentType":5126,
			"count":13780,
			"type":"VEC2"
		},
		{
			"bufferView":15,
			"componentType":5123,
			"count":68532,
			"type":"SCALAR"
		},
		{
			"bufferView":16,
			"componentType":5126,
			"count":2350,
			"max":[
				18.600341796875,
				7.2083330154418945,
				18.600313186645508
			],
			"min":[
				-18.600311279296875,
				0.2083331048488617,
				-18.600313186645508
			],
			"type":"VEC3"
		},
		{
			"bufferView":17,
			"componentType":5126,
			"count":2350,
			"type":"VEC3"
		},
		{
			"bufferView":18,
			"componentType":5126,
			"count":2350,
			"type":"VEC2"
		},
		{
			"bufferView":19,
			"componentType":5123,
			"count":9780,
			"type":"SCALAR"
		},
		{
			"bufferView":20,
			"componentType":5126,
			"count":1511,
			"max":[
				14.59423828125,
				0.9729510545730591,
				14.594226837158203
			],
			"min":[
				-14.59423828125,
				-2.7710987069440307e-06,
				-14.594226837158203
			],
			"type":"VEC3"
		},
		{
			"bufferView":21,
			"componentType":5126,
			"count":1511,
			"type":"VEC3"
		},
		{
			"bufferView":22,
			"componentType":5126,
			"count":1511,
			"type":"VEC2"
		},
		{
			"bufferView":23,
			"componentType":5123,
			"count":6612,
			"type":"SCALAR"
		},
		{
			"bufferView":24,
			"componentType":5126,
			"count":4,
			"max":[
				1,
				0,
				1
			],
			"min":[
				-1,
				0,
				-1
			],
			"type":"VEC3"
		},
		{
			"bufferView":25,
			"componentType":5126,
			"count":4,
			"type":"VEC3"
		},
		{
			"bufferView":26,
			"componentType":5126,
			"count":4,
			"type":"VEC2"
		},
		{
			"bufferView":27,
			"componentType":5123,
			"count":6,
			"type":"SCALAR"
		}
	],
	"bufferViews":[
		{
			"buffer":0,
			"byteLength":92664,
			"byteOffset":0,
			"target":34962
		},
		{
			"buffer":0,
			"byteLength":92664,
			"byteOffset":92664,
			"target":34962
		},
		{
			"buffer":0,
			"byteLength":61776,
			"byteOffset":185328,
			"target":34962
		},
		{
			"buffer":0,
			"byteLength":71112,
			"byteOffset":247104,
			"target":34963
		},
		{
			"buffer":0,
			"byteLength":54624,
			"byteOffset":318216,
			"target":34962
		},
		{
			"buffer":0,
			"byteLength":54624,
			"byteOffset":372840,
			"target":34962
		},
		{
			"buffer":0,
			"byteLength":36416,
			"byteOffset":427464,
			"target":34962
		},
		{
			"buffer":0,
			"byteLength":45156,
			"byteOffset":463880,
			"target":34963
		},
		{
			"buffer":0,
			"byteLength":115836,
			"byteOffset":509036,
			"target":34962
		},
		{
			"buffer":0,
			"byteLength":115836,
			"byteOffset":624872,
			"target":34962
		},
		{
			"buffer":0,
			"byteLength":77224,
			"byteOffset":740708,
			"target":34962
		},
		{
			"buffer":0,
			"byteLength":95292,
			"byteOffset":817932,
			"target":34963
		},
		{
			"buffer":0,
			"byteLength":165360,
			"byteOffset":913224,
			"target":34962
		},
		{
			"buffer":0,
			"byteLength":165360,
			"byteOffset":1078584,
			"target":34962
		},
		{
			"buffer":0,
			"byteLength":110240,
			"byteOffset":1243944,
			"target":34962
		},
		{
			"buffer":0,
			"byteLength":137064,
			"byteOffset":1354184,
			"target":34963
		},
		{
			"buffer":0,
			"byteLength":28200,
			"byteOffset":1491248,
			"target":34962
		},
		{
			"buffer":0,
			"byteLength":28200,
			"byteOffset":1519448,
			"target":34962
		},
		{
			"buffer":0,
			"byteLength":18800,
			"byteOffset":1547648,
			"target":34962
		},
		{
			"buffer":0,
			"byteLength":19560,
			"byteOffset":1566448,
			"target":34963
		},
		{
			"buffer":0,
			"byteLength":18132,
			"byteOffset":1586008,
			"target":34962
		},
		{
			"buffer":0,
			"byteLength":18132,
			"byteOffset":1604140,
			"target":34962
		},
		{
			"buffer":0,
			"byteLength":12088,
			"byteOffset":1622272,
			"target":34962
		},
		{
			"buffer":0,
			"byteLength":13224,
			"byteOffset":1634360,
			"target":34963
		},
		{
			"buffer":0,
			"byteLength":48,
			"byteOffset":1647584,
			"target":34962
		},
		{
			"buffer":0,
			"byteLength":48,
			"byteOffset":1647632,
			"target":34962
		},
		{
			"buffer":0,
			"byteLength":32,
			"byteOffset":1647680,
			"target":34962
		},
		{
			"buffer":0,
			"byteLength":12,
			"byteOffset":1647712,
			"target":34963
		}
	],
	"buffers":[
		{
			"byteLength":1647724,
			"uri":"Shaker%201.bin"
		}
	]
}
